<svg xmlns="http://www.w3.org/2000/svg" xmlns:xlink="http://www.w3.org/1999/xlink" aria-hidden="true" role="img" class="iconify iconify--logos" width="31.88" height="32" preserveAspectRatio="xMidYMid meet" viewBox="0 0 256 257"><defs><linearGradient id="IconifyId1813088fe1fbc01fb466" x1="-.828%" x2="57.636%" y1="7.652%" y2="78.411%"><stop offset="0%" stop-color="#41D1FF"></stop><stop offset="100%" stop-color="#BD34FE"></stop></linearGradient><linearGradient id="IconifyId1813088fe1fbc01fb467" x1="43.376%" x2="50.316%" y1="2.242%" y2="89.03%"><stop offset="0%" stop-color="#FFEA83"></stop><stop offset="8.333%" stop-color="#FFDD35"></stop><stop offset="100%" stop-color="#FFA800"></stop></linearGradient></defs><path fill="url(#IconifyId1813088fe1fbc01fb466)" d="M255.153 37.938L134.897 252.976c-2.483 4.44-8.862 4.466-11.382.048L.875 37.958c-2.746-4.814 1.371-10.646 6.827-9.67l120.385 21.517a6.537 6.537 0 0 0 2.322-.004l117.867-21.483c5.438-.991 9.666 4.81 6.877 9.62Z"></path><path fill="url(#IconifyId1813088fe1fbc01fb467)" d="M185.432.063L96.44 17.501a3.268 3.268 0 0 0-2.634 3.014l-5.474 92.456a3.268 3.268 0 0 0 3.997 3.378l24.777-5.718c2.318-.535 4.413 1.507 3.936 3.838l-7.361 36.047c-.495 2.426 1.782 4.5 4.151 3.38l29.864-13.153c2.372-1.115 4.652 1.7 3.719 4.14l-11.26 28.947c-.942 2.44 1.481 4.526 3.967 3.476l12.62-5.913a3.268 3.268 0 0 1 3.996 3.62l-12.517 39.278c-.577 1.809.938 3.562 2.824 3.58l33.07.257c2.482.019 4.25-2.723 3.178-5.066l-15.881-33.95a3.268 3.268 0 0 1 3.397-4.37l30.023 5.43c2.397.426 4.676-1.706 4.178-4.13l-7.673-37.869a3.268 3.268 0 0 1 3.984-3.889l37.128 11.518c2.176.674 4.24-1.203 3.394-3.493l-9.1-21.956a3.268 3.268 0 0 1 2.393-4.3l15.418-3.585a3.268 3.268 0 0 0 2.372-3.557L187.95 3.68a3.268 3.268 0 0 0-2.518-3.617Z"></path></svg>

